<?xml version="1.0" encoding="utf-8" ?>
<svg xmlns="http://www.w3.org/2000/svg" xmlns:xlink="http://www.w3.org/1999/xlink" width="15.9999" height="16" viewBox="0 0 15.9999 16">
	<path transform="matrix(1 0 0 1 2.26059e-05 0)" d="M6.99217 4.08594L4.83185 0.485625C4.74151 0.334989 4.61992 0.216392 4.46708 0.129835C4.31424 0.0432785 4.15 0 3.97435 0L0.500915 0C0.0962274 0 -0.140648 0.455312 0.0912274 0.786875L3.56841 5.75438C4.49716 4.88656 5.67841 4.29094 6.99217 4.08594ZM15.499 0L12.0256 0C11.6744 0 11.3487 0.184375 11.1681 0.485625L9.00779 4.08594C10.3215 4.29094 11.5028 4.88656 12.4315 5.75406L15.9087 0.786875C16.1406 0.455312 15.9037 0 15.499 0ZM7.99998 5C4.96248 5 2.49998 7.4625 2.49998 10.5C2.49998 13.5375 4.96248 16 7.99998 16C11.0375 16 13.5 13.5375 13.5 10.5C13.5 7.4625 11.0375 5 7.99998 5ZM10.8912 9.91438L9.70591 11.0694L9.98623 12.7013C10.0362 12.9937 9.7281 13.2172 9.46591 13.0791L7.99998 12.3088L6.53435 13.0791C6.27185 13.2181 5.96404 12.9934 6.01404 12.7013L6.29435 11.0694L5.10904 9.91438C4.89592 9.70687 5.01373 9.34469 5.30748 9.30219L6.94592 9.06344L7.6781 7.57844C7.74404 7.44469 7.87154 7.37875 7.99935 7.37875C8.12779 7.37875 8.25623 7.44562 8.32216 7.57844L9.05435 9.06344L10.6928 9.30219C10.9865 9.34469 11.1044 9.70688 10.8912 9.91438Z" fill-rule="nonzero" fill="rgb(156, 163, 175)"/>
</svg>
